<mxfile host="app.diagrams.net" modified="2023-10-07T23:39:18.073Z" agent="Mozilla/5.0 (Macintosh; Intel Mac OS X 10_15_7) AppleWebKit/537.36 (KHTML, like Gecko) Chrome/117.0.0.0 Safari/537.36" etag="MamYZYrZM721MqoIHUAz" version="22.0.4" type="device">
  <diagram name="Page-1" id="ZdXn2VTpGKBQTrUOrqVS">
    <mxGraphModel dx="1558" dy="924" grid="1" gridSize="10" guides="1" tooltips="1" connect="1" arrows="1" fold="1" page="1" pageScale="1" pageWidth="850" pageHeight="1100" math="0" shadow="0">
      <root>
        <mxCell id="0" />
        <mxCell id="1" parent="0" />
        <mxCell id="y6F0W59Wb2HbK9nUB39n-43" value="" style="ellipse;whiteSpace=wrap;html=1;aspect=fixed;fillColor=#d5e8d4;strokeColor=#82b366;" parent="1" vertex="1">
          <mxGeometry x="342.5" y="190" width="140" height="140" as="geometry" />
        </mxCell>
        <mxCell id="y6F0W59Wb2HbK9nUB39n-44" value="dL" style="ellipse;shape=cloud;whiteSpace=wrap;html=1;dashed=1;fillColor=#dae8fc;strokeColor=#6c8ebf;" parent="1" vertex="1">
          <mxGeometry x="390" y="220" width="50" height="40" as="geometry" />
        </mxCell>
        <mxCell id="y6F0W59Wb2HbK9nUB39n-45" value="diX" style="ellipse;whiteSpace=wrap;html=1;aspect=fixed;fillColor=#e1d5e7;strokeColor=#9673a6;" parent="1" vertex="1">
          <mxGeometry x="260" y="230" width="45" height="45" as="geometry" />
        </mxCell>
        <mxCell id="y6F0W59Wb2HbK9nUB39n-46" value="" style="endArrow=classicThin;html=1;rounded=0;entryX=0.16;entryY=0.55;entryDx=0;entryDy=0;entryPerimeter=0;endFill=1;exitX=1;exitY=0.5;exitDx=0;exitDy=0;" parent="1" source="y6F0W59Wb2HbK9nUB39n-45" target="y6F0W59Wb2HbK9nUB39n-44" edge="1">
          <mxGeometry width="50" height="50" relative="1" as="geometry">
            <mxPoint x="295" y="260" as="sourcePoint" />
            <mxPoint x="345" y="210" as="targetPoint" />
          </mxGeometry>
        </mxCell>
        <mxCell id="y6F0W59Wb2HbK9nUB39n-47" value="&lt;font style=&quot;font-size: 15px;&quot;&gt;Liquidity Pool&lt;/font&gt;" style="text;html=1;strokeColor=none;fillColor=none;align=center;verticalAlign=middle;whiteSpace=wrap;rounded=0;" parent="1" vertex="1">
          <mxGeometry x="346.25" y="270" width="132.5" height="40" as="geometry" />
        </mxCell>
      </root>
    </mxGraphModel>
  </diagram>
</mxfile>
